<?xml version="1.0" encoding="UTF-8" standalone="no"?>
<!DOCTYPE svg PUBLIC "-//W3C//DTD SVG 1.1//EN" "http://www.w3.org/Graphics/SVG/1.1/DTD/svg11.dtd">
<svg width="841.92" height="595.20" viewBox="0.00 0.00 3508.00 2480.00" xmlns="http://www.w3.org/2000/svg" xmlns:xlink="http://www.w3.org/1999/xlink">
<g stroke-linecap="round" id="Eco_Answers_2">
<path d="M583.50,901.50 C586.27,901.47 593.09,901.40 596.65,901.42 C600.44,901.44 606.37,902.54 607.15,902.51 C610.89,902.39 623.34,904.78 630.88,907.51 C634.04,908.68 639.36,911.06 641.50,912.50 C645.14,915.00 661.13,931.47 661.50,931.50 C662.24,931.55 664.05,930.25 665.28,930.32 C666.02,930.36 673.26,930.40 673.78,930.51 C675.00,930.78 675.65,931.73 675.69,933.08 C675.84,937.04 675.37,1027.46 675.34,1064.68 C675.39,1078.98 675.49,1103.47 675.50,1103.50 C675.73,1104.21 676.50,1104.76 676.50,1105.50 C676.50,1106.25 675.40,1107.81 675.48,1109.74 C675.49,1110.10 675.45,1202.65 675.50,1235.50 C675.51,1255.93 675.51,1281.43 675.50,1286.50" fill="none" stroke="rgb(255, 255, 255)" stroke-width="99.20" stroke-opacity="1.00" stroke-linejoin="round"/>
<path d="M675.50,930.50 C678.87,926.54 682.43,923.11 686.49,920.34 C689.83,918.10 698.97,912.72 699.50,912.50 C700.34,912.16 711.75,907.96 721.50,906.50 C724.50,906.06 731.32,905.61 733.61,904.95 C735.51,904.40 741.90,904.59 743.50,904.50 C745.01,904.41 752.16,903.49 756.14,903.46 C772.38,903.40 811.19,903.46 816.78,904.24 C819.46,904.61 826.43,904.39 827.50,904.50 C828.54,904.61 832.92,905.45 833.50,905.50 C834.31,905.57 838.88,905.43 839.50,905.50 C841.50,906.00 846.50,906.50 849.50,906.50 C850.29,906.57 853.12,907.45 853.50,907.50 C853.98,907.57 856.92,907.43 857.50,907.50 C859.50,908.00 863.67,908.50 865.33,909.00 C867.41,909.62 871.55,909.45 873.18,909.91 C873.25,909.93 909.09,917.25 909.50,917.50 C910.52,918.17 913.04,926.86 913.50,927.50 C914.50,928.50 915.83,929.95 916.06,931.44 C916.27,932.94 917.37,934.77 917.50,935.50 C917.62,936.16 917.20,936.91 917.50,937.50 C917.93,938.34 919.83,939.91 920.03,941.19 C920.44,943.64 922.25,949.13 923.60,951.50 C924.54,953.17 925.41,959.69 926.50,961.53 C927.61,963.41 931.49,981.75 932.16,984.25 C933.47,989.05 933.74,992.30 934.21,993.38 C934.92,994.96 936.09,996.04 938.50,997.50" fill="none" stroke="rgb(255, 255, 255)" stroke-width="99.20" stroke-opacity="1.00" stroke-linejoin="round"/>
<path d="M871.50,1025.50 C871.69,1033.54 870.34,1038.16 870.59,1043.60 C870.61,1045.06 869.47,1049.06 869.24,1052.08 C869.00,1055.50 868.54,1061.91 867.91,1064.07 C867.52,1065.45 867.67,1069.31 866.96,1071.98 C866.78,1072.60 863.56,1087.96 860.43,1098.69 C859.83,1100.97 857.51,1103.30 857.50,1104.50 C857.50,1104.65 859.98,1106.94 860.39,1108.41 C861.05,1110.64 865.43,1128.07 866.50,1134.50 C866.57,1134.82 868.26,1145.55 868.50,1146.50 C868.57,1147.04 868.43,1150.01 868.50,1150.50 C868.55,1150.88 869.43,1153.71 869.50,1154.50 C869.57,1155.18 869.44,1159.75 869.50,1160.50 C869.60,1161.65 870.53,1164.71 870.43,1168.77 C870.33,1173.15 871.50,1178.48 871.50,1178.50 C871.61,1179.21 871.58,1181.20 871.50,1182.50" fill="none" stroke="rgb(255, 255, 255)" stroke-width="99.20" stroke-opacity="1.00" stroke-linejoin="round"/>
<path d="M1243.50,1124.50 C1243.33,1122.00 1245.12,1108.04 1245.50,1106.50 C1245.57,1105.99 1245.81,1099.62 1245.50,1098.50 C1245.24,1097.61 1227.92,1062.43 1226.50,1060.50 C1224.42,1057.74 1218.50,1053.50 1216.29,1052.06 C1213.91,1050.51 1209.59,1049.24 1205.20,1048.36 C1197.81,1046.98 1184.88,1046.15 1175.42,1046.24 C1159.22,1046.62 1146.35,1049.38 1144.33,1050.52 C1142.34,1051.65 1138.01,1052.57 1136.53,1053.30 C1135.39,1053.87 1133.66,1055.09 1132.30,1056.23 C1130.89,1057.42 1129.11,1057.24 1128.50,1057.50 C1127.92,1057.74 1123.19,1062.06 1122.50,1062.50 C1121.88,1062.91 1121.00,1062.95 1120.50,1063.50 C1120.00,1064.05 1120.01,1064.95 1119.50,1065.50 C1119.00,1066.05 1116.93,1066.85 1115.59,1068.24 C1113.36,1070.55 1109.55,1076.46 1109.50,1076.50 C1108.83,1076.83 1108.17,1077.17 1107.50,1077.50 C1106.95,1078.00 1102.94,1084.51 1100.83,1087.42 C1100.00,1088.55 1099.56,1089.24 1099.50,1089.50 C1099.38,1090.16 1099.82,1090.91 1099.50,1091.50 C1099.05,1092.33 1097.92,1092.66 1097.50,1093.50 C1097.21,1094.10 1097.78,1094.90 1097.50,1095.50 C1097.10,1096.35 1095.14,1097.99 1095.00,1099.50 C1094.86,1101.01 1092.94,1102.66 1092.50,1103.50 C1092.20,1104.09 1092.63,1104.85 1092.50,1105.50 C1092.17,1106.17 1091.83,1106.83 1091.50,1107.50 C1091.37,1108.16 1091.82,1108.91 1091.50,1109.50 C1090.83,1110.17 1090.17,1110.83 1089.50,1111.50 C1089.18,1112.09 1089.63,1112.85 1089.50,1113.50 C1089.35,1114.23 1088.69,1114.78 1088.50,1115.50 C1088.33,1116.15 1088.46,1117.72 1087.67,1119.09 C1086.57,1121.01 1082.24,1138.23 1080.50,1145.50 C1079.69,1149.18 1075.59,1177.33 1075.50,1177.50 C1075.28,1177.92 1074.66,1178.06 1074.50,1178.50 C1074.27,1179.13 1074.46,1181.02 1073.89,1182.81 C1073.23,1185.00 1072.52,1187.62 1072.50,1188.50 C1072.48,1189.84 1074.03,1195.76 1074.50,1196.59 C1075.32,1198.02 1076.00,1201.50 1076.50,1203.50 C1076.59,1204.18 1076.47,1207.16 1076.50,1207.50 C1076.53,1207.79 1077.66,1212.26 1078.42,1217.30 C1079.22,1222.40 1081.38,1228.77 1081.50,1229.50 C1081.62,1230.16 1081.54,1231.98 1082.06,1233.82 C1083.49,1239.09 1083.17,1240.92 1083.50,1241.50 C1083.97,1242.32 1085.00,1242.70 1085.50,1243.50 C1085.74,1243.87 1085.33,1246.71 1085.50,1247.50 C1085.64,1248.17 1087.38,1251.21 1087.50,1251.50 C1087.75,1252.09 1088.36,1255.12 1088.50,1255.50 C1090.45,1260.09 1094.28,1269.85 1097.50,1275.50 C1098.91,1277.97 1102.34,1283.34 1104.26,1285.78 C1105.44,1287.28 1107.29,1291.48 1109.43,1293.49 C1111.65,1295.56 1114.49,1299.66 1116.30,1300.93 C1118.26,1302.29 1124.55,1307.65 1126.97,1309.20 C1129.66,1310.91 1134.51,1313.62 1138.41,1315.59 C1140.05,1316.43 1141.50,1316.50 1142.50,1316.50 C1142.59,1316.52 1147.78,1319.01 1152.25,1320.06 C1154.02,1320.48 1155.85,1320.34 1156.50,1320.50 C1157.00,1320.62 1160.13,1322.53 1160.50,1322.50 C1160.97,1322.46 1161.86,1321.28 1163.42,1321.30 C1164.28,1321.30 1168.92,1323.02 1171.50,1322.50 C1171.74,1322.45 1174.89,1321.48 1175.50,1321.50 C1175.97,1321.52 1178.83,1322.49 1179.50,1322.50 C1180.04,1322.51 1186.63,1321.37 1191.12,1321.55 C1193.67,1321.63 1205.15,1319.52 1207.02,1319.61 C1209.04,1319.71 1215.68,1317.97 1219.18,1317.04 C1221.03,1316.53 1222.85,1316.64 1223.50,1316.50 C1223.86,1316.42 1231.64,1312.30 1234.14,1311.50 C1239.58,1309.77 1248.38,1303.80 1256.55,1297.78 C1263.43,1292.64 1271.46,1284.44 1277.45,1276.53 C1278.33,1275.36 1279.86,1273.35 1280.50,1272.50" fill="none" stroke="rgb(255, 255, 255)" stroke-width="99.20" stroke-opacity="1.00" stroke-linejoin="round"/>
<path d="M1594.50,1194.50 C1595.29,1193.89 1595.71,1193.12 1596.16,1191.13 C1596.68,1188.82 1597.50,1185.54 1597.50,1185.50 C1598.05,1181.67 1593.69,1172.11 1593.50,1171.50 C1593.24,1170.65 1589.24,1145.12 1588.50,1141.50 C1588.30,1140.54 1581.62,1117.60 1581.43,1117.25 C1581.33,1117.06 1577.71,1105.87 1573.53,1097.30 C1568.33,1087.04 1564.96,1081.36 1559.32,1073.94 C1558.09,1072.31 1556.54,1070.18 1555.72,1068.99 C1554.86,1067.73 1553.01,1067.04 1552.50,1066.50 C1552.17,1065.83 1551.83,1065.17 1551.50,1064.50 C1550.99,1063.96 1549.39,1063.43 1547.50,1061.50 C1545.07,1059.06 1539.61,1055.16 1536.65,1053.82 C1532.52,1051.98 1522.18,1048.65 1513.13,1047.02 C1509.97,1046.46 1492.05,1046.16 1485.48,1046.86 C1477.77,1047.70 1464.88,1051.44 1459.50,1054.50 C1456.26,1056.36 1450.03,1061.23 1449.50,1061.50 C1448.84,1061.84 1448.00,1061.95 1447.50,1062.50 C1447.01,1063.06 1447.03,1063.98 1446.50,1064.50 C1445.98,1065.03 1445.06,1065.01 1444.50,1065.50 C1443.95,1066.00 1443.23,1067.96 1441.46,1070.00 C1438.43,1073.53 1432.60,1081.11 1432.50,1081.50 C1432.35,1082.15 1432.71,1082.87 1432.50,1083.50 C1432.37,1083.91 1429.02,1088.46 1428.50,1089.50 C1427.97,1090.54 1427.70,1093.23 1427.50,1093.50 C1426.93,1094.25 1425.90,1094.65 1425.50,1095.50 C1425.22,1096.11 1425.80,1096.90 1425.50,1097.50 C1425.08,1098.34 1423.96,1098.68 1423.50,1099.50 C1423.18,1100.09 1423.63,1100.85 1423.50,1101.50 C1423.17,1102.17 1422.83,1102.83 1422.50,1103.50 C1422.37,1104.16 1422.82,1104.91 1422.50,1105.50 C1422.05,1106.33 1420.97,1106.69 1420.50,1107.50 C1420.17,1108.08 1420.43,1110.11 1419.50,1112.53 C1418.59,1114.93 1418.62,1116.85 1418.50,1117.50 C1418.47,1117.64 1416.41,1121.75 1415.21,1126.72 C1410.83,1146.37 1408.03,1161.95 1406.77,1171.71 C1406.68,1172.54 1405.06,1176.60 1403.94,1182.26 C1403.20,1186.12 1404.50,1190.01 1404.50,1191.50 C1404.57,1191.87 1407.38,1197.52 1407.50,1199.50 C1407.52,1199.95 1407.93,1206.95 1408.97,1211.99 C1414.02,1237.53 1417.63,1251.96 1422.47,1264.97 C1423.43,1267.48 1425.63,1271.56 1425.96,1273.58 C1426.18,1275.08 1428.10,1276.65 1428.50,1277.50 C1428.78,1278.11 1428.20,1278.90 1428.50,1279.50 C1429.17,1280.17 1429.83,1280.83 1430.50,1281.50 C1430.50,1282.17 1430.50,1282.83 1430.50,1283.50 C1430.92,1284.34 1432.05,1284.68 1432.50,1285.50 C1432.82,1286.09 1432.57,1287.91 1433.56,1289.29 C1435.69,1292.23 1439.75,1296.95 1443.80,1301.39 C1446.70,1304.47 1450.97,1309.05 1453.50,1310.50 C1453.50,1310.50 1458.04,1313.84 1462.91,1316.23 C1467.01,1318.19 1473.97,1320.80 1477.61,1321.52 C1479.92,1321.96 1487.16,1322.50 1489.79,1322.42 C1491.25,1322.38 1495.65,1323.66 1498.56,1323.67 C1501.03,1323.67 1505.39,1322.37 1507.66,1322.48 C1511.64,1322.67 1515.88,1322.27 1520.51,1321.22 C1526.77,1319.76 1536.83,1315.16 1542.83,1310.96 C1546.38,1308.40 1555.16,1300.29 1560.41,1293.54 C1562.86,1290.30 1568.45,1282.71 1568.50,1282.50 C1568.64,1281.85 1568.18,1281.09 1568.50,1280.50 C1568.95,1279.67 1570.08,1279.34 1570.50,1278.50 C1570.50,1277.83 1570.50,1277.17 1570.50,1276.50 C1571.17,1275.83 1571.83,1275.17 1572.50,1274.50 C1572.80,1273.90 1572.22,1273.11 1572.50,1272.50 C1572.90,1271.65 1574.80,1270.11 1575.00,1268.67 C1575.21,1267.29 1575.77,1265.75 1576.59,1264.33 C1577.46,1262.86 1577.18,1261.09 1577.50,1260.50 C1578.17,1259.83 1578.83,1259.17 1579.50,1258.50 C1579.82,1257.91 1579.37,1257.16 1579.50,1256.50 C1579.83,1255.83 1580.17,1255.17 1580.50,1254.50 C1580.63,1253.85 1580.18,1253.09 1580.50,1252.50 C1580.95,1251.67 1582.02,1251.31 1582.50,1250.50 C1582.84,1249.92 1582.51,1248.01 1583.01,1246.06 C1584.30,1240.99 1585.65,1238.21 1586.05,1236.46 C1587.10,1232.05 1588.22,1227.80 1588.95,1225.10 C1589.60,1222.47 1590.18,1216.20 1590.50,1214.50 C1590.82,1212.82 1592.66,1206.36 1592.57,1204.25 C1592.47,1202.16 1593.29,1197.13 1593.50,1196.50 C1593.74,1195.79 1594.49,1195.25 1594.50,1194.50 C1594.51,1193.45 1593.37,1191.00 1593.38,1188.92 C1593.17,1176.72 1593.66,1174.95 1594.50,1173.50" fill="none" stroke="rgb(255, 255, 255)" stroke-width="99.20" stroke-opacity="1.00" stroke-linejoin="round"/>
<path d="M857.50,1104.50 C854.84,1104.51 849.41,1104.52 846.97,1104.40 C845.89,1104.33 844.24,1105.56 843.50,1105.50 C843.03,1105.46 842.97,1104.50 842.50,1104.50 C841.83,1104.83 841.17,1105.17 840.50,1105.50 C839.83,1105.17 839.17,1104.83 838.50,1104.50 C837.83,1104.83 837.17,1105.17 836.50,1105.50 C835.76,1105.50 835.24,1104.55 834.50,1104.50 C833.76,1104.46 832.18,1105.61 830.19,1105.52 C829.82,1105.51 736.32,1105.55 704.50,1105.50 C694.95,1105.49 680.95,1105.49 676.50,1105.50" fill="none" stroke="rgb(255, 255, 255)" stroke-width="99.20" stroke-opacity="1.00" stroke-linejoin="round"/>
<path d="M1406.50,1195.50 C1407.35,1194.05 1407.61,1193.09 1407.61,1191.03 C1407.70,1179.28 1407.22,1175.02 1406.50,1173.50" fill="none" stroke="rgb(255, 255, 255)" stroke-width="99.20" stroke-opacity="1.00" stroke-linejoin="round"/>
<path d="M1075.50,1198.50 C1076.35,1197.05 1076.61,1196.08 1076.61,1194.01 C1076.70,1181.45 1076.35,1179.80 1075.50,1177.50" fill="none" stroke="rgb(255, 255, 255)" stroke-width="99.20" stroke-opacity="1.00" stroke-linejoin="round"/>
<path d="M952.50,1210.50 C950.60,1215.84 950.08,1219.33 949.50,1220.30 C948.30,1222.33 948.68,1226.49 947.50,1228.47 C946.21,1230.63 946.73,1234.14 946.50,1234.50 C946.00,1235.30 944.96,1235.68 944.50,1236.50 C944.17,1237.08 944.47,1238.87 943.69,1240.99 C942.42,1244.51 940.66,1252.12 940.50,1252.50 C940.19,1253.18 939.63,1253.77 939.50,1254.50 C939.39,1255.16 939.82,1255.92 939.50,1256.50 C939.05,1257.33 937.97,1257.68 937.50,1258.50 C937.17,1259.08 937.47,1260.89 936.68,1262.96 C932.26,1274.84 929.61,1280.16 929.50,1280.50 C929.27,1281.19 928.81,1284.08 928.50,1284.50 C927.50,1285.50 926.20,1286.90 925.99,1288.33 C925.65,1290.47 923.75,1294.02 922.63,1296.54 C921.64,1298.69 917.64,1301.62 915.78,1302.04 C904.26,1304.51 876.00,1310.67 871.56,1310.49 C869.53,1310.40 857.69,1312.63 855.02,1312.55 C850.20,1312.38 843.34,1313.52 832.30,1313.59 C797.04,1313.61 755.22,1313.59 748.67,1313.55 C745.57,1313.51 732.36,1312.12 727.22,1311.74 C722.96,1311.15 716.00,1309.83 712.64,1308.99 C708.60,1307.94 694.08,1301.91 694.04,1301.89 C690.23,1299.85 685.20,1295.49 682.83,1292.41 C682.09,1291.45 679.53,1288.36 678.19,1287.51 C676.95,1286.79 673.38,1286.14 671.79,1286.46 C671.33,1286.56 664.96,1288.92 663.94,1288.68 C662.71,1288.35 661.13,1285.88 660.85,1284.41 C660.10,1279.55 661.78,1246.77 661.54,1228.89 C661.52,1201.96 661.50,1139.52 661.50,1104.01 C661.50,1062.70 661.50,990.17 661.50,958.95 C661.50,947.62 661.50,933.89 661.50,931.50" fill="none" stroke="rgb(255, 255, 255)" stroke-width="99.20" stroke-opacity="1.00" stroke-linejoin="round"/>
<path d="M581.50,1318.50 C584.61,1318.47 588.85,1318.63 589.50,1318.50 C590.01,1318.40 594.59,1317.39 600.45,1317.55 C603.92,1317.63 614.99,1315.57 617.99,1315.12 C621.40,1314.60 628.82,1312.09 630.24,1311.56 C634.29,1310.02 641.29,1305.82 644.78,1303.00 C649.05,1299.50 659.53,1288.56 661.50,1286.50" fill="none" stroke="rgb(255, 255, 255)" stroke-width="99.20" stroke-opacity="1.00" stroke-linejoin="round"/>
<path d="M791.50,1579.50 C789.33,1581.48 774.72,1590.02 769.51,1592.43 C767.74,1593.27 763.51,1596.60 761.10,1597.81 C757.17,1599.77 752.50,1601.86 751.50,1603.50 C750.92,1604.49 727.59,1667.50 726.50,1669.50 C725.41,1671.50 718.53,1691.61 717.64,1693.28 C716.29,1695.80 686.17,1776.23 685.46,1779.22 C684.82,1781.91 683.37,1796.20 682.50,1797.50 C681.28,1799.29 677.45,1801.83 676.50,1802.50 C675.58,1803.15 674.44,1806.71 672.51,1811.98 C668.65,1822.26 660.53,1842.00 659.82,1844.97 C657.55,1854.77 650.36,1876.60 650.12,1878.89 C649.73,1883.29 645.40,1907.49 642.85,1916.92 C641.58,1921.89 641.37,1927.11 640.50,1929.50" fill="none" stroke="rgb(255, 255, 255)" stroke-width="99.20" stroke-opacity="1.00" stroke-linejoin="round"/>
<path d="M1665.50,1670.50 C1665.57,1672.54 1664.26,1677.59 1663.50,1680.50 C1662.20,1685.50 1660.92,1688.51 1658.14,1691.09 C1658.07,1691.16 1653.76,1694.88 1653.50,1695.50 C1653.26,1696.14 1655.95,1700.15 1656.98,1704.06 C1657.67,1706.75 1661.86,1727.34 1663.47,1735.61 C1664.46,1741.10 1664.66,1743.08 1664.50,1745.50" fill="none" stroke="rgb(255, 255, 255)" stroke-width="99.20" stroke-opacity="1.00" stroke-linejoin="round"/>
<path d="M3101.50,1670.50 C3101.57,1672.54 3100.26,1677.59 3099.50,1680.50 C3098.20,1685.50 3096.92,1688.51 3094.14,1691.09 C3094.07,1691.16 3089.76,1694.88 3089.50,1695.50 C3089.26,1696.14 3091.95,1700.15 3092.98,1704.06 C3093.67,1706.75 3097.86,1727.34 3099.47,1735.61 C3100.46,1741.10 3100.66,1743.08 3100.50,1745.50" fill="none" stroke="rgb(255, 255, 255)" stroke-width="99.20" stroke-opacity="1.00" stroke-linejoin="round"/>
<path d="M1473.50,1927.50 C1477.62,1928.43 1482.02,1929.51 1484.11,1930.70 C1484.72,1931.05 1492.72,1933.30 1493.50,1933.50 C1494.09,1933.66 1498.32,1934.84 1503.56,1937.53 C1507.86,1939.74 1523.64,1945.68 1526.33,1946.07 C1530.24,1946.62 1535.58,1948.03 1538.98,1948.93 C1541.91,1949.69 1545.62,1949.51 1548.10,1949.98 C1551.58,1950.63 1558.41,1950.39 1559.50,1950.50 C1560.47,1950.60 1567.11,1951.71 1570.92,1951.65 C1573.32,1951.60 1579.32,1950.47 1582.19,1950.54 C1586.99,1950.66 1604.42,1946.21 1607.98,1944.33 C1608.49,1944.05 1613.11,1942.03 1615.70,1939.47 C1618.54,1936.64 1624.81,1930.14 1625.64,1929.07 C1626.39,1928.10 1627.27,1923.41 1629.07,1921.33 C1630.41,1919.80 1630.40,1918.16 1630.50,1917.50 C1630.52,1917.37 1632.85,1912.57 1633.84,1907.93 C1634.40,1905.38 1636.61,1901.44 1636.99,1898.87 C1638.46,1888.55 1642.70,1873.25 1642.54,1870.99 C1642.42,1869.68 1643.47,1868.25 1643.50,1867.50 C1643.53,1866.91 1641.62,1862.23 1641.50,1861.50 C1641.38,1860.85 1641.45,1859.13 1640.72,1857.48 C1638.96,1853.58 1636.02,1849.42 1632.31,1845.56 C1630.79,1844.00 1630.02,1842.04 1629.50,1841.50 C1629.10,1841.08 1624.07,1838.12 1623.50,1837.50 C1622.99,1836.96 1622.24,1835.08 1620.96,1834.19 C1619.24,1832.99 1608.81,1825.64 1600.60,1821.07 C1584.50,1812.50 1555.84,1798.18 1542.14,1791.44 C1540.87,1790.83 1539.27,1789.04 1538.50,1788.50 C1538.47,1788.48 1535.95,1788.13 1534.50,1787.50 C1533.49,1787.06 1522.44,1780.56 1513.44,1773.81 C1510.03,1771.18 1504.76,1766.55 1502.50,1763.50 C1500.90,1761.31 1495.72,1752.13 1495.50,1751.50 C1495.26,1750.79 1496.61,1737.89 1498.13,1731.69 C1499.32,1726.91 1505.57,1708.80 1508.38,1700.90 C1510.34,1695.80 1513.38,1690.28 1515.77,1687.87 C1518.01,1685.67 1526.30,1680.57 1528.50,1679.50 C1531.63,1678.01 1539.87,1676.64 1540.50,1676.50 C1541.11,1676.37 1551.19,1674.83 1552.50,1674.50 C1553.50,1674.38 1576.56,1674.45 1578.67,1675.08 C1580.59,1675.64 1585.25,1675.05 1588.50,1675.50 C1591.06,1675.87 1611.66,1681.16 1612.50,1681.50 C1613.69,1681.98 1616.33,1683.47 1616.50,1683.50 C1617.16,1683.63 1619.23,1683.59 1621.33,1684.31 C1624.41,1685.38 1628.43,1687.56 1630.44,1687.97 C1631.89,1688.27 1633.43,1688.85 1634.76,1689.60 C1635.61,1690.09 1638.91,1690.56 1646.11,1692.97 C1648.34,1693.73 1652.04,1695.00 1653.50,1695.50" fill="none" stroke="rgb(255, 255, 255)" stroke-width="99.20" stroke-opacity="1.00" stroke-linejoin="round"/>
<path d="M2501.50,1799.50 C2497.06,1795.07 2484.00,1784.99 2480.19,1782.33 C2476.88,1780.03 2469.84,1776.01 2466.58,1774.81 C2464.64,1774.10 2460.89,1773.51 2459.88,1773.13 C2458.35,1772.54 2455.89,1769.86 2454.50,1767.50 C2451.99,1763.05 2449.76,1752.54 2446.99,1738.03 C2446.55,1735.85 2446.32,1733.90 2446.18,1733.10 C2446.00,1732.05 2443.93,1730.34 2443.50,1729.50 C2443.20,1728.91 2443.44,1727.12 2442.41,1725.05 C2437.03,1713.86 2432.52,1707.61 2432.50,1707.50 C2432.40,1706.84 2432.72,1706.13 2432.50,1705.50 C2432.39,1705.18 2425.08,1697.16 2423.56,1694.90 C2422.72,1693.64 2421.01,1693.04 2420.50,1692.50 C2419.98,1691.96 2420.00,1691.06 2419.50,1690.50 C2419.00,1689.95 2417.05,1689.22 2414.63,1687.07 C2411.35,1684.21 2402.29,1678.37 2395.50,1676.50 C2389.79,1674.96 2379.21,1674.21 2370.42,1674.39 C2361.87,1674.63 2349.76,1677.05 2349.25,1677.25 C2344.50,1679.03 2339.78,1681.48 2339.50,1681.50 C2338.84,1681.57 2337.13,1681.60 2335.52,1682.77 C2332.66,1684.81 2327.25,1688.66 2324.70,1690.48 C2323.69,1691.17 2322.97,1692.92 2322.50,1693.50 C2322.07,1694.05 2318.80,1696.13 2318.50,1696.50 C2318.03,1697.08 2317.24,1698.93 2315.68,1700.57 C2312.96,1703.49 2308.62,1708.11 2308.50,1708.50 C2308.31,1709.14 2308.77,1709.89 2308.50,1710.50 C2308.38,1710.77 2305.73,1713.22 2304.97,1714.39 C2302.92,1717.53 2293.27,1736.92 2292.05,1740.67 C2291.57,1742.18 2287.53,1753.43 2285.90,1761.62 C2284.35,1769.54 2282.52,1776.02 2280.96,1786.13 C2280.69,1788.05 2279.43,1789.76 2279.50,1790.50 C2279.55,1790.97 2280.47,1791.03 2280.50,1791.50 C2280.54,1792.25 2279.71,1792.79 2279.50,1793.50 C2279.32,1794.14 2279.65,1794.85 2279.50,1795.50 C2279.33,1796.23 2278.38,1797.88 2278.49,1799.33 C2278.67,1802.05 2274.35,1816.28 2273.77,1818.05 C2273.42,1819.18 2274.19,1820.82 2274.50,1821.50 C2275.42,1823.47 2275.60,1827.91 2276.40,1829.33 C2277.72,1831.68 2278.56,1835.07 2278.49,1837.53 C2278.42,1839.60 2280.61,1850.15 2282.37,1859.83 C2283.41,1865.26 2286.29,1875.35 2287.60,1877.67 C2288.43,1879.13 2288.50,1880.50 2288.50,1881.50 C2288.56,1881.83 2290.21,1884.68 2290.50,1885.50 C2290.80,1886.30 2291.20,1889.11 2291.50,1889.50 C2292.08,1890.24 2293.10,1890.65 2293.50,1891.50 C2293.78,1892.11 2293.20,1892.90 2293.50,1893.50 C2294.17,1894.17 2294.83,1894.83 2295.50,1895.50 C2295.50,1896.17 2295.50,1896.83 2295.50,1897.50 C2296.17,1898.17 2296.83,1898.83 2297.50,1899.50 C2297.50,1900.17 2297.50,1900.83 2297.50,1901.50 C2297.93,1902.34 2299.05,1902.67 2299.50,1903.50 C2299.82,1904.09 2299.36,1904.85 2299.50,1905.50 C2299.88,1907.06 2310.92,1920.42 2313.87,1923.59 C2315.23,1925.03 2315.98,1926.97 2316.50,1927.50 C2317.03,1928.03 2318.97,1928.78 2321.01,1930.56 C2324.54,1933.58 2330.08,1938.36 2330.50,1938.50 C2331.13,1938.71 2332.80,1938.58 2334.24,1939.85 C2335.66,1941.08 2337.36,1941.94 2338.76,1942.12 C2340.21,1942.29 2341.50,1943.50 2342.50,1944.50 C2342.93,1944.80 2349.43,1946.20 2352.50,1947.50 C2352.91,1947.67 2360.52,1949.54 2363.02,1949.97 C2366.03,1950.47 2385.09,1950.64 2392.01,1950.58 C2394.78,1950.55 2406.28,1948.48 2408.19,1948.57 C2410.33,1948.67 2423.29,1946.01 2430.63,1943.35 C2434.28,1941.94 2440.64,1939.48 2442.94,1938.25 C2444.40,1937.47 2448.58,1936.60 2450.08,1935.40 C2452.51,1933.44 2470.48,1921.39 2473.17,1917.95 C2474.30,1916.50 2478.76,1913.33 2479.72,1911.99 C2481.58,1909.35 2494.40,1893.17 2496.48,1889.50 C2497.27,1888.10 2497.87,1886.39 2498.25,1885.28 C2498.98,1883.50 2503.30,1881.45 2505.50,1880.50" fill="none" stroke="rgb(255, 255, 255)" stroke-width="99.20" stroke-opacity="1.00" stroke-linejoin="round"/>
<path d="M2909.50,1927.50 C2913.62,1928.43 2918.02,1929.51 2920.11,1930.70 C2920.72,1931.05 2928.72,1933.30 2929.50,1933.50 C2930.09,1933.66 2934.32,1934.84 2939.56,1937.53 C2943.86,1939.74 2959.64,1945.68 2962.33,1946.07 C2966.24,1946.62 2971.58,1948.03 2974.98,1948.93 C2977.91,1949.69 2981.62,1949.51 2984.10,1949.98 C2987.58,1950.63 2994.41,1950.39 2995.50,1950.50 C2996.47,1950.60 3003.11,1951.71 3006.92,1951.65 C3009.32,1951.60 3015.32,1950.47 3018.19,1950.54 C3022.99,1950.66 3040.42,1946.21 3043.98,1944.33 C3044.49,1944.05 3049.11,1942.03 3051.70,1939.47 C3054.54,1936.64 3060.81,1930.14 3061.64,1929.07 C3062.39,1928.10 3063.27,1923.41 3065.07,1921.33 C3066.41,1919.80 3066.40,1918.16 3066.50,1917.50 C3066.52,1917.37 3068.85,1912.57 3069.84,1907.93 C3070.40,1905.38 3072.61,1901.44 3072.99,1898.87 C3074.46,1888.55 3078.70,1873.25 3078.54,1870.99 C3078.42,1869.68 3079.47,1868.25 3079.50,1867.50 C3079.53,1866.91 3077.62,1862.23 3077.50,1861.50 C3077.38,1860.85 3077.45,1859.13 3076.72,1857.48 C3074.96,1853.58 3072.02,1849.42 3068.31,1845.56 C3066.79,1844.00 3066.02,1842.04 3065.50,1841.50 C3065.10,1841.08 3060.07,1838.12 3059.50,1837.50 C3058.99,1836.96 3058.24,1835.08 3056.96,1834.19 C3055.24,1832.99 3044.81,1825.64 3036.60,1821.07 C3020.50,1812.50 2991.84,1798.18 2978.14,1791.44 C2976.87,1790.83 2975.27,1789.04 2974.50,1788.50 C2974.47,1788.48 2971.95,1788.13 2970.50,1787.50 C2969.49,1787.06 2958.44,1780.56 2949.44,1773.81 C2946.03,1771.18 2940.76,1766.55 2938.50,1763.50 C2936.90,1761.31 2931.72,1752.13 2931.50,1751.50 C2931.26,1750.79 2932.61,1737.89 2934.13,1731.69 C2935.32,1726.91 2941.57,1708.80 2944.38,1700.90 C2946.34,1695.80 2949.38,1690.28 2951.77,1687.87 C2954.01,1685.67 2962.30,1680.57 2964.50,1679.50 C2967.63,1678.01 2975.87,1676.64 2976.50,1676.50 C2977.11,1676.37 2987.19,1674.83 2988.50,1674.50 C2989.50,1674.38 3012.56,1674.45 3014.67,1675.08 C3016.59,1675.64 3021.25,1675.05 3024.50,1675.50 C3027.06,1675.87 3047.66,1681.16 3048.50,1681.50 C3049.69,1681.98 3052.33,1683.47 3052.50,1683.50 C3053.16,1683.63 3055.23,1683.59 3057.33,1684.31 C3060.41,1685.38 3064.43,1687.56 3066.44,1687.97 C3067.89,1688.27 3069.43,1688.85 3070.76,1689.60 C3071.61,1690.09 3074.91,1690.56 3082.11,1692.97 C3084.34,1693.73 3088.04,1695.00 3089.50,1695.50" fill="none" stroke="rgb(255, 255, 255)" stroke-width="99.20" stroke-opacity="1.00" stroke-linejoin="round"/>
<path d="M1084.50,1677.50 C1086.19,1677.42 1102.65,1679.45 1105.40,1679.98 C1108.14,1680.54 1112.12,1682.17 1116.24,1684.37 C1117.86,1685.25 1121.88,1686.86 1124.47,1689.30 C1130.53,1695.08 1140.05,1704.18 1143.50,1707.50" fill="none" stroke="rgb(255, 255, 255)" stroke-width="99.20" stroke-opacity="1.00" stroke-linejoin="round"/>
<path d="M1749.50,1677.50 C1750.57,1677.83 1761.33,1678.88 1770.40,1681.51 C1775.87,1683.12 1785.51,1688.58 1794.63,1693.00 C1800.50,1695.86 1812.20,1702.60 1815.20,1704.30 C1816.93,1705.31 1819.68,1705.83 1820.50,1706.50 C1820.78,1706.73 1820.39,1709.36 1820.50,1710.50 C1820.54,1711.09 1822.41,1722.24 1824.16,1732.34 C1824.21,1732.58 1824.55,1737.08 1825.72,1743.33 C1826.45,1746.88 1828.64,1750.66 1828.99,1753.24 C1829.46,1756.75 1831.60,1762.74 1832.00,1764.64 C1832.37,1766.38 1837.64,1778.63 1838.02,1780.39 C1839.60,1785.79 1842.24,1795.98 1844.50,1800.50 C1844.68,1800.96 1848.50,1812.50 1850.50,1816.50 C1850.71,1817.05 1854.34,1827.74 1854.85,1830.09 C1855.36,1832.43 1857.64,1836.57 1858.16,1838.91 C1859.13,1843.45 1868.97,1869.81 1870.23,1872.67 C1870.82,1874.01 1873.68,1875.63 1874.50,1876.50 C1875.65,1877.74 1873.45,1881.76 1873.50,1882.50 C1873.56,1883.24 1874.50,1883.76 1874.50,1884.50 C1874.17,1885.17 1873.83,1885.83 1873.50,1886.50 C1873.83,1886.83 1874.17,1887.17 1874.50,1887.50 C1874.17,1888.17 1873.83,1888.83 1873.50,1889.50 C1873.83,1889.83 1874.17,1890.17 1874.50,1890.50 C1874.17,1891.17 1873.83,1891.83 1873.50,1892.50 C1873.50,1893.25 1874.45,1893.76 1874.50,1894.50 C1874.54,1895.25 1873.31,1896.94 1873.38,1898.15 C1873.56,1901.60 1873.53,1932.42 1873.50,1932.50 C1873.26,1933.21 1872.46,1933.76 1872.50,1934.50 C1872.55,1935.24 1873.50,1935.76 1873.50,1936.50 C1873.17,1937.17 1872.83,1937.83 1872.50,1938.50 C1872.83,1938.83 1873.17,1939.17 1873.50,1939.50 C1873.17,1940.17 1872.83,1940.83 1872.50,1941.50 C1872.83,1941.83 1873.17,1942.17 1873.50,1942.50 C1873.17,1943.17 1872.83,1943.83 1872.50,1944.50 C1872.50,1945.25 1873.45,1945.76 1873.50,1946.50 C1873.54,1947.25 1872.31,1949.02 1872.40,1950.64 C1872.43,1951.26 1872.47,1951.88 1872.50,1952.50" fill="none" stroke="rgb(255, 255, 255)" stroke-width="99.20" stroke-opacity="1.00" stroke-linejoin="round"/>
<path d="M1869.50,1677.50 C1868.04,1678.35 1866.97,1678.65 1865.14,1678.56 C1860.63,1678.38 1856.10,1679.40 1855.50,1679.50 C1854.63,1679.66 1850.87,1680.06 1849.50,1680.50 C1847.66,1681.11 1841.36,1685.45 1839.13,1687.66 C1833.59,1693.33 1824.28,1702.75 1820.50,1706.50" fill="none" stroke="rgb(255, 255, 255)" stroke-width="99.20" stroke-opacity="1.00" stroke-linejoin="round"/>
<path d="M1921.50,1678.50 C1928.73,1678.45 1939.90,1678.96 1944.56,1680.22 C1950.35,1681.82 1962.01,1687.83 1968.35,1692.59 C1976.88,1699.02 1983.16,1705.35 1983.50,1705.50 C1984.32,1705.86 1985.44,1705.80 1986.00,1706.50 C1986.91,1707.68 1985.54,1740.67 1986.07,1746.84 C1986.24,1748.70 1987.58,1752.65 1988.77,1753.89 C1989.39,1754.53 1993.75,1755.93 1994.50,1756.50 C1995.33,1757.12 1995.53,1761.16 1996.72,1765.62 C1999.29,1775.27 2000.22,1781.31 2000.50,1782.50 C2000.75,1783.54 2009.53,1815.50 2013.50,1834.50 C2013.87,1836.26 2014.69,1841.55 2015.86,1846.27 C2016.30,1848.03 2017.24,1849.80 2017.50,1850.50 C2017.53,1850.57 2021.56,1869.01 2021.81,1870.12 C2022.29,1872.15 2023.13,1873.53 2024.50,1874.50 C2024.56,1874.55 2028.45,1876.78 2028.50,1877.50 C2028.54,1878.55 2027.51,1879.45 2027.50,1880.50 C2027.48,1881.25 2028.44,1881.76 2028.50,1882.50 C2028.54,1883.25 2027.35,1884.93 2027.43,1886.98 C2027.47,1888.74 2027.54,1892.26 2027.57,1894.02 C2027.65,1896.07 2026.46,1897.76 2026.50,1898.50 C2026.55,1899.24 2027.50,1899.76 2027.50,1900.50 C2027.50,1901.25 2026.54,1901.76 2026.50,1902.50 C2026.48,1902.97 2027.32,1903.07 2027.50,1903.50 C2027.53,1903.58 2026.39,1910.56 2026.50,1915.69 C2026.61,1920.69 2025.46,1925.38 2025.50,1925.50 C2025.73,1926.21 2026.49,1926.76 2026.50,1927.50 C2026.52,1928.25 2025.35,1929.93 2025.43,1931.98 C2025.47,1933.74 2025.54,1937.26 2025.57,1939.02 C2025.65,1941.07 2024.46,1942.76 2024.50,1943.50 C2024.55,1944.24 2025.50,1944.76 2025.50,1945.50 C2025.50,1946.25 2024.54,1946.76 2024.50,1947.50 C2024.48,1947.97 2025.32,1948.06 2025.50,1948.50 C2025.63,1948.83 2024.42,1953.05 2024.50,1954.50" fill="none" stroke="rgb(255, 255, 255)" stroke-width="99.20" stroke-opacity="1.00" stroke-linejoin="round"/>
<path d="M1986.50,1706.50 C1991.67,1701.17 2005.91,1686.59 2008.50,1684.50 C2012.21,1681.55 2017.78,1679.69 2018.50,1679.50 C2018.71,1679.45 2029.29,1678.41 2034.28,1678.42 C2036.46,1678.44 2040.07,1678.48 2041.50,1678.50" fill="none" stroke="rgb(255, 255, 255)" stroke-width="99.20" stroke-opacity="1.00" stroke-linejoin="round"/>
<path d="M2090.50,1678.50 C2095.74,1678.17 2112.83,1680.10 2116.50,1681.50 C2119.14,1682.52 2122.21,1684.91 2123.12,1685.57 C2124.28,1686.38 2126.71,1686.58 2127.90,1685.95 C2128.81,1685.46 2131.62,1683.37 2133.50,1682.50 C2142.29,1678.47 2161.70,1678.48 2164.50,1678.50" fill="none" stroke="rgb(255, 255, 255)" stroke-width="99.20" stroke-opacity="1.00" stroke-linejoin="round"/>
<path d="M2028.50,1877.50 C2030.41,1875.78 2033.50,1873.90 2037.79,1871.91 C2040.67,1870.53 2046.42,1866.65 2048.50,1865.50 C2050.65,1864.33 2059.91,1859.89 2060.50,1859.50 C2062.43,1858.20 2063.52,1855.44 2065.69,1850.66 C2072.62,1835.46 2089.12,1798.15 2089.85,1796.71 C2090.01,1796.42 2112.15,1744.56 2112.50,1743.50 C2112.74,1742.80 2116.21,1732.80 2116.83,1729.91 C2117.30,1727.76 2119.64,1723.58 2119.92,1721.04 C2120.16,1718.56 2124.11,1693.69 2125.50,1686.50" fill="none" stroke="rgb(255, 255, 255)" stroke-width="99.20" stroke-opacity="1.00" stroke-linejoin="round"/>
<path d="M2663.50,1749.50 C2668.97,1744.38 2683.43,1730.82 2684.00,1730.46 C2686.47,1728.95 2708.43,1718.09 2709.89,1717.01 C2710.49,1716.56 2712.51,1714.44 2713.52,1713.38 C2714.97,1711.84 2716.99,1711.05 2717.50,1710.50 C2718.01,1709.96 2718.01,1709.06 2718.50,1708.50 C2718.83,1708.12 2721.99,1706.93 2722.50,1706.50 C2723.23,1705.91 2724.96,1704.19 2726.83,1703.83 C2729.63,1703.30 2737.12,1700.25 2749.67,1697.07 C2753.77,1696.06 2763.47,1693.73 2764.50,1693.50 C2770.97,1692.10 2775.99,1691.58 2778.50,1692.50 C2780.89,1693.44 2786.48,1698.38 2788.50,1700.50 C2791.76,1703.96 2794.87,1708.43 2794.99,1711.22 C2795.03,1713.08 2793.66,1721.24 2793.50,1722.50 C2793.15,1725.52 2794.55,1729.30 2794.50,1729.50" fill="none" stroke="rgb(255, 255, 255)" stroke-width="99.20" stroke-opacity="1.00" stroke-linejoin="round"/>
<path d="M1143.50,1707.50 C1144.88,1706.79 1146.75,1706.23 1147.50,1706.50 C1148.49,1706.92 1148.46,1725.25 1148.41,1733.07 C1148.45,1738.30 1149.59,1741.77 1149.52,1743.70 C1149.51,1744.04 1149.52,1841.89 1149.48,1878.13 C1149.49,1892.67 1149.50,1911.35 1149.50,1915.50" fill="none" stroke="rgb(255, 255, 255)" stroke-width="99.20" stroke-opacity="1.00" stroke-linejoin="round"/>
<path d="M1143.50,1915.50 C1143.50,1888.60 1143.50,1820.78 1143.50,1779.86 C1143.50,1748.87 1143.50,1712.70 1143.50,1707.50" fill="none" stroke="rgb(255, 255, 255)" stroke-width="99.20" stroke-opacity="1.00" stroke-linejoin="round"/>
<path d="M2656.50,1915.50 C2656.50,1888.60 2656.50,1820.78 2656.50,1779.86 C2656.50,1748.87 2656.50,1712.70 2656.50,1707.50" fill="none" stroke="rgb(255, 255, 255)" stroke-width="99.20" stroke-opacity="1.00" stroke-linejoin="round"/>
<path d="M1874.50,1876.50 C1876.62,1874.36 1913.56,1855.09 1914.40,1853.94 C1914.51,1853.78 1946.89,1780.55 1947.50,1779.50 C1948.39,1778.02 1952.18,1776.18 1956.68,1773.84 C1961.83,1771.12 1967.57,1767.86 1969.50,1766.50 C1972.87,1764.10 1976.84,1759.09 1979.75,1756.12 C1981.24,1754.60 1985.69,1750.29 1986.50,1749.50" fill="none" stroke="rgb(255, 255, 255)" stroke-width="99.20" stroke-opacity="1.00" stroke-linejoin="round"/>
<path d="M1314.50,1752.50 C1313.65,1753.94 1313.41,1754.85 1313.49,1756.91 C1313.50,1757.31 1313.44,1854.40 1313.48,1892.07 C1313.48,1898.56 1313.50,1910.28 1313.50,1915.50" fill="none" stroke="rgb(255, 255, 255)" stroke-width="99.20" stroke-opacity="1.00" stroke-linejoin="round"/>
<path d="M2454.50,1767.50 C2449.18,1772.79 2438.05,1784.04 2432.24,1789.99 C2431.06,1791.20 2429.71,1791.91 2428.63,1791.85 C2422.42,1791.38 2345.66,1791.44 2320.69,1791.49 C2303.52,1791.50 2283.43,1791.50 2280.50,1791.50" fill="none" stroke="rgb(255, 255, 255)" stroke-width="99.20" stroke-opacity="1.00" stroke-linejoin="round"/>
<path d="M862.50,1775.50 C857.18,1780.79 846.05,1792.04 840.24,1797.99 C839.06,1799.20 837.71,1799.90 836.63,1799.85 C829.55,1799.32 748.18,1799.55 719.45,1799.61 C710.03,1799.66 687.24,1799.56 686.91,1799.58 C684.85,1799.68 683.94,1799.21 682.50,1797.50" fill="none" stroke="rgb(255, 255, 255)" stroke-width="99.20" stroke-opacity="1.00" stroke-linejoin="round"/>
<path d="M2277.50,1831.50 C2278.35,1830.08 2278.61,1829.08 2278.60,1826.74 C2278.63,1822.62 2278.63,1814.38 2278.60,1810.26 C2278.61,1807.92 2278.35,1806.92 2277.50,1805.50" fill="none" stroke="rgb(255, 255, 255)" stroke-width="99.20" stroke-opacity="1.00" stroke-linejoin="round"/>
<path d="M1462.50,1856.50 C1462.34,1867.19 1463.00,1870.50 1463.50,1872.50 C1463.57,1873.08 1463.43,1877.79 1463.50,1878.50 C1463.58,1879.34 1464.46,1882.20 1464.50,1882.50 C1464.56,1882.92 1464.53,1886.85 1465.55,1892.48 C1467.18,1900.83 1471.01,1919.57 1471.89,1922.73 C1472.22,1924.02 1474.06,1927.19 1474.00,1927.50 C1473.97,1927.65 1470.97,1929.90 1469.92,1931.43 C1467.79,1934.43 1465.54,1939.84 1464.70,1943.47 C1463.32,1949.56 1462.59,1956.61 1462.50,1957.50" fill="none" stroke="rgb(255, 255, 255)" stroke-width="99.20" stroke-opacity="1.00" stroke-linejoin="round"/>
<path d="M2898.50,1856.50 C2898.34,1867.19 2899.00,1870.50 2899.50,1872.50 C2899.57,1873.08 2899.43,1877.79 2899.50,1878.50 C2899.58,1879.34 2900.46,1882.20 2900.50,1882.50 C2900.56,1882.92 2900.53,1886.85 2901.55,1892.48 C2903.18,1900.83 2907.01,1919.57 2907.89,1922.73 C2908.22,1924.02 2910.06,1927.19 2910.00,1927.50 C2909.97,1927.65 2906.97,1929.90 2905.92,1931.43 C2903.79,1934.43 2901.54,1939.84 2900.70,1943.47 C2899.32,1949.56 2898.59,1956.61 2898.50,1957.50" fill="none" stroke="rgb(255, 255, 255)" stroke-width="99.20" stroke-opacity="1.00" stroke-linejoin="round"/>
<path d="M896.50,1871.50 C895.65,1872.92 895.41,1873.87 895.45,1876.12 C895.46,1876.41 895.49,1912.71 895.50,1915.50" fill="none" stroke="rgb(255, 255, 255)" stroke-width="99.20" stroke-opacity="1.00" stroke-linejoin="round"/>
<path d="M914.50,1915.50 C911.43,1915.04 902.55,1913.73 899.47,1914.27 C897.53,1914.65 893.96,1916.19 892.43,1917.28 C889.82,1919.21 883.77,1927.16 882.05,1929.01 C879.33,1931.89 873.80,1935.74 869.93,1937.27 C866.51,1938.58 859.56,1940.68 855.65,1941.46 C850.13,1942.46 838.22,1943.55 837.50,1943.50 C834.44,1943.31 830.93,1944.34 829.50,1944.50 C828.58,1944.60 819.61,1944.54 816.50,1944.50" fill="none" stroke="rgb(255, 255, 255)" stroke-width="99.20" stroke-opacity="1.00" stroke-linejoin="round"/>
<path d="M1011.50,1944.50 C999.80,1943.70 981.51,1941.00 960.65,1935.34 C954.80,1933.65 946.02,1930.35 941.25,1928.24 C936.35,1926.01 916.77,1917.46 914.50,1915.50 C913.26,1914.39 912.14,1912.65 911.78,1911.26 C910.50,1906.03 903.98,1889.07 900.79,1881.06 C897.14,1872.19 895.63,1870.95 895.50,1870.50 C895.32,1869.86 895.66,1869.15 895.50,1868.50 C895.33,1867.77 894.38,1866.11 894.49,1864.61 C894.62,1862.53 893.52,1858.76 893.05,1855.40 C892.65,1852.63 890.44,1848.74 889.93,1846.34 C888.27,1838.46 882.19,1822.62 881.50,1820.50 C880.54,1817.54 879.65,1812.50 878.48,1810.34 C877.37,1808.31 869.97,1787.69 869.07,1782.59 C868.76,1780.91 868.02,1779.76 866.50,1778.50 C866.16,1778.23 863.47,1776.24 862.50,1775.50 C861.60,1774.81 861.46,1774.36 861.55,1772.68 C861.66,1770.81 859.18,1755.31 858.44,1751.97 C857.69,1748.63 846.31,1719.86 843.62,1713.59 C841.73,1709.21 838.50,1700.50 837.50,1696.50 C836.50,1694.50 834.68,1688.95 834.50,1688.50 C834.27,1687.91 832.16,1683.58 831.17,1678.98 C830.58,1676.29 806.14,1614.41 805.50,1612.50 C804.80,1610.37 803.62,1604.41 802.46,1602.28 C801.37,1600.27 797.61,1588.49 796.38,1586.34 C795.55,1584.93 795.85,1583.07 795.50,1582.50 C795.11,1581.87 792.28,1580.72 791.50,1579.50 C791.44,1579.41 791.53,1543.11 791.50,1534.50" fill="none" stroke="rgb(255, 255, 255)" stroke-width="99.20" stroke-opacity="1.00" stroke-linejoin="round"/>
<path d="M1084.50,1944.50 C1093.09,1944.00 1100.13,1942.96 1110.50,1940.50 C1114.49,1939.48 1117.86,1937.99 1120.99,1935.93 C1127.68,1931.43 1143.44,1915.53 1143.50,1915.50 C1144.31,1915.14 1146.93,1915.61 1147.50,1915.50 C1148.18,1915.41 1148.83,1914.85 1149.50,1915.00 C1149.77,1915.07 1166.45,1933.04 1170.99,1935.96 C1175.70,1938.96 1181.32,1940.76 1194.25,1943.40 C1199.80,1944.43 1204.36,1944.88 1206.50,1944.50" fill="none" stroke="rgb(255, 255, 255)" stroke-width="99.20" stroke-opacity="1.00" stroke-linejoin="round"/>
<path d="M1257.50,1944.50 C1262.16,1944.65 1275.43,1942.53 1275.50,1942.50 C1276.26,1942.25 1279.15,1940.65 1279.50,1940.50 C1280.03,1940.28 1286.11,1938.78 1288.06,1937.71 C1290.60,1936.31 1296.99,1931.22 1300.10,1928.48 C1304.47,1924.54 1310.44,1917.94 1311.31,1917.02 C1312.54,1915.72 1314.23,1915.34 1316.48,1915.60 C1318.18,1915.79 1318.81,1915.20 1318.84,1913.35 C1318.45,1896.33 1318.51,1818.15 1318.55,1783.13 C1318.54,1780.29 1318.54,1772.83 1318.50,1772.50 C1318.41,1771.72 1315.56,1754.70 1315.50,1754.50 C1315.32,1753.91 1313.72,1751.15 1313.50,1750.50 C1313.39,1750.16 1311.52,1738.91 1311.50,1738.50 C1311.38,1735.89 1306.64,1716.65 1306.50,1716.50 C1305.87,1715.80 1304.92,1715.34 1304.50,1714.50 C1304.20,1713.91 1304.62,1713.16 1304.50,1712.50 C1304.37,1711.77 1303.27,1709.93 1303.06,1708.47 C1302.83,1706.97 1301.10,1705.23 1300.50,1704.50 C1300.48,1704.48 1299.41,1701.85 1298.50,1700.50 C1297.92,1699.64 1294.97,1696.26 1293.57,1694.67 C1291.63,1692.50 1280.92,1685.51 1277.50,1684.50 C1277.13,1684.40 1272.75,1684.53 1267.98,1684.42 C1265.31,1684.38 1253.53,1686.51 1251.30,1686.86 C1247.56,1687.45 1225.86,1692.51 1225.50,1692.50 C1224.22,1692.47 1223.55,1692.47 1223.50,1692.50 C1222.69,1692.98 1222.35,1694.08 1221.50,1694.50 C1220.83,1694.50 1220.17,1694.50 1219.50,1694.50 C1218.66,1694.92 1218.33,1696.05 1217.50,1696.50 C1216.92,1696.82 1215.14,1696.56 1213.62,1697.62 C1206.84,1702.18 1197.83,1710.38 1197.50,1710.50 C1196.87,1710.72 1195.04,1710.54 1192.86,1711.26 C1187.45,1713.01 1173.41,1718.01 1172.65,1718.64 C1169.69,1721.16 1150.33,1740.67 1149.50,1741.50" fill="none" stroke="rgb(255, 255, 255)" stroke-width="99.20" stroke-opacity="1.00" stroke-linejoin="round"/>
<path d="M1318.50,1915.50 C1327.09,1924.46 1336.14,1933.45 1341.59,1936.82 C1345.20,1939.01 1350.19,1940.37 1350.50,1940.50 C1350.99,1940.71 1353.10,1942.03 1354.50,1942.50 C1355.30,1942.76 1365.63,1944.42 1366.50,1944.50 C1367.70,1944.61 1371.51,1944.46 1375.50,1944.50" fill="none" stroke="rgb(255, 255, 255)" stroke-width="99.20" stroke-opacity="1.00" stroke-linejoin="round"/>
<path d="M2589.50,1944.50 C2592.36,1944.54 2600.64,1944.60 2601.50,1944.50 C2602.97,1944.33 2605.05,1943.60 2605.50,1943.50 C2605.97,1943.40 2610.69,1943.47 2614.70,1942.93 C2618.07,1942.45 2624.12,1940.76 2627.40,1939.50 C2631.05,1938.05 2637.11,1933.99 2640.22,1931.12 C2646.06,1925.12 2655.92,1915.62 2656.50,1915.50 C2657.48,1915.30 2663.16,1915.68 2663.50,1915.50 C2663.88,1915.28 2663.44,1870.56 2663.38,1856.63 C2663.44,1824.03 2663.54,1750.58 2663.50,1750.50 C2663.37,1750.24 2660.93,1748.22 2660.50,1747.50 C2660.45,1747.42 2660.64,1707.76 2660.50,1707.50 C2660.03,1706.69 2659.36,1706.36 2658.50,1706.50 C2657.77,1706.62 2657.25,1707.54 2656.50,1707.50 C2656.03,1707.47 2636.46,1688.39 2633.79,1686.53 C2631.69,1685.09 2619.51,1680.68 2613.55,1679.92 C2609.71,1679.44 2594.05,1678.69 2589.50,1678.50" fill="none" stroke="rgb(255, 255, 255)" stroke-width="99.20" stroke-opacity="1.00" stroke-linejoin="round"/>
<path d="M2663.50,1915.50 C2668.83,1920.55 2682.27,1933.13 2685.65,1935.33 C2688.28,1937.01 2691.08,1938.46 2693.70,1939.03 C2695.06,1939.31 2698.02,1940.69 2704.56,1941.98 C2717.92,1944.61 2734.98,1944.54 2738.50,1944.50" fill="none" stroke="rgb(255, 255, 255)" stroke-width="99.20" stroke-opacity="1.00" stroke-linejoin="round"/>
<path d="M575.50,1944.50 C578.54,1944.55 584.89,1944.61 586.99,1943.99 C588.87,1943.41 592.56,1943.55 594.12,1943.11 C595.33,1942.77 611.16,1940.10 618.19,1938.21 C620.92,1937.46 624.83,1935.37 626.05,1935.10 C633.31,1933.49 640.11,1929.34 640.50,1929.50 C640.83,1929.64 645.02,1933.40 646.50,1934.50 C649.85,1936.99 667.84,1942.16 672.50,1942.50 C675.32,1942.70 690.04,1944.62 700.23,1944.54 C700.99,1944.52 701.75,1944.51 702.50,1944.50" fill="none" stroke="rgb(255, 255, 255)" stroke-width="99.20" stroke-opacity="1.00" stroke-linejoin="round"/>
<path d="M1624.29,1007.04 C1624.29,1007.04 1628.20,1004.00 1628.20,1004.00" fill="none" stroke="rgb(255, 255, 255)" stroke-width="20.00" stroke-opacity="1.00" stroke-linejoin="round"/>
<path d="M1638.90,1003.71 C1637.99,1004.99 1635.35,1008.83 1634.88,1009.16 C1634.01,1009.73 1633.39,1007.61 1633.55,1005.36 C1633.78,1002.64 1634.68,996.61 1634.88,994.61 C1635.12,992.05 1634.52,989.74 1633.68,989.75 C1632.24,989.99 1625.57,998.97 1622.82,1004.05 C1621.72,1006.13 1621.11,1008.46 1621.50,1008.89 C1622.27,1009.46 1629.27,1004.99 1633.52,1001.23 C1635.55,999.41 1638.37,996.09 1639.24,994.50 C1640.01,992.98 1640.26,990.03 1639.68,988.72 C1638.99,987.36 1635.96,985.16 1633.50,984.14 C1631.33,983.28 1627.26,982.35 1625.71,982.36 C1624.22,982.43 1622.01,983.67 1621.48,984.83 C1620.96,986.11 1621.23,990.49 1621.89,992.46 C1622.58,994.35 1624.64,995.75 1626.23,995.63 C1628.20,995.38 1634.18,990.41 1638.10,985.81 C1639.77,983.83 1641.37,981.70 1643.40,978.76 C1644.60,976.93 1646.31,972.44 1646.14,970.75 C1646.02,969.73 1643.48,966.73 1642.67,965.67" fill="none" stroke="rgb(255, 255, 255)" stroke-width="120.00" stroke-opacity="1.00" stroke-linejoin="round"/>
<path d="M1623.41,1011.68 C1641.71,993.71 1695.33,941.09 1714.57,923.17 C1720.79,917.59 1732.82,906.99 1738.64,901.97 C1744.06,897.52 1761.76,883.53 1768.24,879.06 C1773.24,875.63 1782.27,870.18 1786.29,868.15 C1792.39,865.11 1805.79,861.28 1811.20,859.73 C1813.35,859.11 1820.30,857.12 1820.56,857.01 C1820.85,856.88 1821.44,856.56 1822.36,856.03" fill="none" stroke="rgb(255, 255, 255)" stroke-width="20.00" stroke-opacity="1.00" stroke-linejoin="round"/>
<path d="M1641.79,1015.25 C1642.74,1011.86 1644.38,1005.54 1645.19,1003.42 C1646.94,998.96 1651.20,993.21 1652.71,991.48 C1661.16,982.19 1681.02,960.86 1692.43,948.83 C1705.82,935.22 1731.86,909.36 1743.90,898.19 C1749.61,893.14 1760.81,883.45 1768.39,877.26 C1777.85,869.71 1795.20,857.92 1802.72,853.93 C1806.54,851.92 1832.32,840.69 1837.09,838.61 C1817.71,854.03 1769.40,892.49 1740.46,915.53 C1708.77,940.77 1654.71,983.80 1632.35,1001.61 C1628.25,1004.87 1623.22,1008.87 1622.29,1009.61 C1645.11,988.66 1680.71,955.70 1693.49,943.70 C1700.05,937.30 1711.06,926.39 1715.53,921.88 C1717.06,920.33 1719.18,918.18 1719.77,917.58" fill="none" stroke="rgb(255, 255, 255)" stroke-width="120.00" stroke-opacity="1.00" stroke-linejoin="round"/>
<path d="M1638.15,1017.90 C1642.66,1008.39 1653.90,984.62 1660.64,970.36 C1666.14,958.83 1673.38,945.22 1678.20,937.43 C1683.02,929.65 1693.53,915.02 1699.20,908.17 C1704.81,901.43 1716.81,888.96 1723.17,883.21 C1729.54,877.47 1743.10,866.87 1750.28,862.01 C1757.41,857.21 1791.72,837.49 1804.09,830.57 C1809.30,827.82 1822.56,820.88 1832.84,816.83 C1840.25,813.93 1853.52,811.10 1859.05,810.09 C1862.80,809.42 1878.91,808.89 1883.08,808.76" fill="none" stroke="rgb(255, 255, 255)" stroke-width="20.00" stroke-opacity="1.00" stroke-linejoin="round"/>
<path d="M1661.60,964.21 C1663.78,968.34 1665.68,970.83 1668.61,971.88 C1673.91,973.85 1691.02,979.34 1697.30,980.38 C1706.56,981.85 1723.29,981.53 1731.86,980.39 C1739.69,979.33 1756.94,975.52 1764.98,973.07 C1772.97,970.62 1787.62,964.53 1793.45,961.02 C1797.09,958.82 1803.57,954.00 1806.39,951.40 C1810.31,947.76 1820.34,934.62 1824.40,928.86 C1828.27,923.11 1835.58,910.44 1838.95,904.08 C1842.57,897.01 1848.09,882.66 1850.11,875.00 C1853.22,863.12 1860.01,816.57 1860.28,816.29 C1860.58,815.99 1861.54,815.51 1863.15,814.86" fill="none" stroke="rgb(255, 255, 255)" stroke-width="20.00" stroke-opacity="1.00" stroke-linejoin="round"/>
<path d="M1651.66,960.82 C1651.03,958.77 1649.18,952.81 1648.40,949.58 C1647.28,944.93 1644.80,925.65 1644.71,920.41 C1644.57,911.19 1646.55,896.73 1647.91,889.61 C1650.28,878.58 1653.57,866.95 1656.88,859.74 C1660.32,852.32 1668.83,839.92 1674.02,834.23 C1679.40,828.37 1691.79,817.95 1698.35,813.95 C1705.16,809.83 1718.94,804.47 1726.86,802.96 C1734.35,801.56 1750.55,801.36 1757.95,801.45 C1768.50,801.79 1781.70,802.92 1790.27,804.60 C1796.43,805.91 1803.52,807.41 1804.44,807.60" fill="none" stroke="rgb(255, 255, 255)" stroke-width="20.00" stroke-opacity="1.00" stroke-linejoin="round"/>
<path d="M1707.95,976.94" fill="none" stroke="rgb(255, 255, 255)" stroke-width="120.00" stroke-opacity="1.00" stroke-linejoin="round"/>
</g>
</svg>
